nColumns=19
nRows=108
DataType=double
version=3
OpenSimVersion=4.1
endheader
time	ground_force_calcn_r_vx	ground_force_calcn_r_vy	ground_force_calcn_r_vz	ground_force_calcn_r_px	ground_force_calcn_r_py	ground_force_calcn_r_pz	ground_force_calcn_r_mx	ground_force_calcn_r_my	ground_force_calcn_r_mz	ground_force_calcn_l_vx	ground_force_calcn_l_vy	ground_force_calcn_l_vz	ground_force_calcn_l_px	ground_force_calcn_l_py	ground_force_calcn_l_pz	ground_force_calcn_l_mx	ground_force_calcn_l_my	ground_force_calcn_l_mz
0	-25.7043	114.448	7.16637	0.0523599	0	-0.147932	-0.0361733	0.161061	0.0100851	0	0	0	0	0	0	0	0	0
0.01	-34.3502	153.778	8.08963	0.0590771	0	-0.147179	-0.0369422	0.165381	0.00870005	0	0	0	0	0	0	0	0	0
0.02	-44.1838	197.956	8.77413	0.0653384	0	-0.146388	-0.0400399	0.179391	0.00795123	0	0	0	0	0	0	0	0	0
0.03	-55.0603	245.963	9.07307	0.070593	0	-0.145613	-0.0455609	0.203528	0.00750772	0	0	0	0	0	0	0	0	0
0.04	-66.7342	296.562	8.84367	0.0752795	0	-0.144816	-0.0538184	0.239165	0.00713205	0	0	0	0	0	0	0	0	0
0.05	-78.837	348.452	7.97103	0.0796231	0	-0.143976	-0.0648207	0.286501	0.00655387	0	0	0	0	0	0	0	0	0
0.06	-90.9372	400.309	6.38245	0.0837338	0	-0.143081	-0.0779613	0.343188	0.00547174	0	0	0	0	0	0	0	0	0
0.07	-102.559	450.814	4.07583	0.0876503	0	-0.142135	-0.0922883	0.405665	0.00366764	0	0	0	0	0	0	0	0	0
0.08	-113.205	498.691	1.13345	0.0913713	0	-0.141148	-0.107074	0.471678	0.00107206	0	0	0	0	0	0	0	0	0
0.09	-122.416	542.777	-2.29363	0.0948858	0	-0.140135	-0.121744	0.539796	-0.00228103	0	0	0	0	0	0	0	0	0
0.1	-129.844	582.132	-6.02684	0.0981865	0	-0.139103	-0.13537	0.606909	-0.00628335	0	0	0	0	0	0	0	0	0
0.11	-135.276	616.083	-9.88817	0.101285	0	-0.138056	-0.146698	0.668104	-0.0107231	0	0	0	0	0	0	0	0	0
0.12	-138.625	644.186	-13.711	0.104201	0	-0.136989	-0.154522	0.718061	-0.0152834	0	0	0	0	0	0	0	0	0
0.13	-139.912	666.184	-17.3522	0.106963	0	-0.135898	-0.157891	0.751793	-0.0195821	0	0	0	0	0	0	0	0	0
0.14	-139.254	681.997	-20.7036	0.109609	0	-0.134771	-0.156202	0.765003	-0.0232235	0	0	0	0	0	0	0	0	0
0.15	-136.839	691.703	-23.6922	0.112182	0	-0.133597	-0.149339	0.754887	-0.0258564	0	0	0	0	0	0	0	0	0
0.16	-132.909	695.538	-26.2738	0.114728	0	-0.132365	-0.137738	0.720809	-0.0272284	0	0	0	0	0	0	0	0	0
0.17	-127.734	693.887	-28.4304	0.117291	0	-0.131063	-0.122243	0.664058	-0.0272082	0	0	0	0	0	0	0	0	0
0.18	-121.592	687.279	-30.1638	0.119907	0	-0.129686	-0.103912	0.587348	-0.0257779	0	0	0	0	0	0	0	0	0
0.19	-114.746	676.369	-31.4885	0.122602	0	-0.128229	-0.0838617	0.494321	-0.0230133	0	0	0	0	0	0	0	0	0
0.2	-107.43	661.895	-32.4288	0.125389	0	-0.126693	-0.0630853	0.388678	-0.0190428	0	0	0	0	0	0	0	0	0
0.21	-99.8374	644.643	-33.0157	0.128266	0	-0.125086	-0.0423542	0.273478	-0.0140063	0	0	0	0	0	0	0	0	0
0.22	-92.1244	625.408	-33.2861	0.131226	0	-0.123418	-0.0222014	0.15072	-0.00802176	0	0	0	0	0	0	0	0	0
0.23	-84.4214	604.959	-33.2817	0.13425	0	-0.121705	-0.00296458	0.021244	-0.00116873	0	0	0	0	0	0	0	0	0
0.24	-76.8372	584.017	-33.0507	0.13732	0	-0.119963	0.0151622	-0.115243	0.00652185	0	0	0	0	0	0	0	0	0
0.25	-69.4636	563.233	-32.6471	0.140414	0	-0.118217	0.0320421	-0.259807	0.0150594	0	0	0	0	0	0	0	0	0
0.26	-62.3784	543.194	-32.1285	0.143513	0	-0.116492	0.047527	-0.413867	0.0244792	0	0	0	0	0	0	0	0	0
0.27	-55.6481	524.414	-31.5529	0.146601	0	-0.114816	0.0614277	-0.578879	0.03483	0	0	0	0	0	0	0	0	0
0.28	-49.3289	507.336	-30.9739	0.149664	0	-0.113224	0.0735452	-0.756396	0.0461795	0	0	0	0	0	0	0	0	0
0.29	-43.4642	492.335	-30.4369	0.152693	0	-0.111754	0.0837207	-0.948336	0.0586275	0	0	0	0	0	0	0	0	0
0.3	-38.08	479.709	-29.9744	0.155682	0	-0.110447	0.0918471	-1.15703	0.0722966	0	0	0	0	0	0	0	0	0
0.31	-33.181	469.687	-29.604	0.158624	0	-0.109342	0.0978486	-1.38508	0.0873005	0	0	0	0	0	0	0	0	0
0.32	-28.7478	462.423	-29.3288	0.161516	0	-0.108481	0.101654	-1.63515	0.103708	0	0	0	0	0	0	0	0	0
0.33	-24.7391	457.999	-29.1372	0.164353	0	-0.107891	0.10316	-1.90982	0.1215	0	0	0	0	0	0	0	0	0
0.34	-21.0948	456.438	-29.0055	0.167137	0	-0.107593	0.102193	-2.21119	0.140516	0	0	0	0	0	0	0	0	0
0.35	-17.7431	457.711	-28.9024	0.169869	0	-0.107592	0.0984799	-2.54044	0.160418	0	0	0	0	0	0	0	0	0
0.36	-14.6062	461.739	-28.7947	0.172556	0	-0.107879	0.0916515	-2.89733	0.180682	0	0	0	0	0	0	0	0	0
0.37	-11.6044	468.394	-28.6557	0.175211	0	-0.108427	0.0812541	-3.27971	0.200648	0	0	0	0	0	0	0	0	0
0.38	-8.65733	477.491	-28.4715	0.177844	0	-0.109196	0.0667755	-3.68297	0.219606	0	0	0	0	0	0	0	0	0
0.39	-5.68614	488.793	-28.2453	0.180472	0	-0.110134	0.0476923	-4.09973	0.236906	0	0	0	0	0	0	0	0	0
0.4	-2.61644	502.012	-27.9991	0.183105	0	-0.111182	0.0235569	-4.51984	0.252088	0	0	0	0	0	0	0	0	0
0.41	0.617681	516.814	-27.7707	0.185755	0	-0.112281	-0.00589309	-4.93075	0.264951	0	0	0	0	0	0	0	0	0
0.42	4.06968	532.833	-27.606	0.188434	0	-0.113373	-0.0406208	-5.31838	0.275545	0	0	0	0	0	0	0	0	0
0.43	7.77865	549.671	-27.5488	0.19115	0	-0.114411	-0.0802117	-5.66808	0.284077	0	0	0	0	0	0	0	0	0
0.44	11.7687	566.914	-27.6311	0.193908	0	-0.115353	-0.123846	-5.96584	0.290772	0	0	0	0	0	0	0	0	0
0.45	16.0483	584.135	-27.8674	0.196712	0	-0.116172	-0.17032	-6.19942	0.295756	0	0	0	0	0	0	0	0	0
0.46	20.6103	600.902	-28.2521	0.199567	0	-0.116852	-0.218123	-6.35945	0.298997	0	0	0	0	0	0	0	0	0
0.47	25.4333	616.775	-28.7603	0.20247	0	-0.117385	-0.265563	-6.44009	0.300302	0	0	0	0	0	0	0	0	0
0.48	30.4835	631.323	-29.3498	0.205421	0	-0.117778	-0.31093	-6.43945	0.299365	0	0	0	0	0	0	0	0	0
0.49	35.7182	644.127	-29.9636	0.208411	0	-0.118041	-0.352649	-6.35953	0.295834	0	0	0	0	0	0	0	0	0
0.5	41.0891	654.798	-30.5343	0.211434	0	-0.118194	-0.389427	-6.20593	0.289393	0	0	0	0	0	0	0	0	0
0.51	46.5459	662.986	-30.99	0.214472	0	-0.118258	-0.420337	-5.98714	0.279858	0	0	0	0	0	0	0	0	0
0.52	52.0365	668.376	-31.2614	0.21751	0	-0.118253	-0.444835	-5.71362	0.267239	0	0	0	0	0	0	0	0	0
0.53	57.504	670.685	-31.289	0.22053	0	-0.118201	-0.462724	-5.39688	0.251777	0	0	0	0	0	0	0	0	0
0.54	62.8828	669.658	-31.0299	0.223513	0	-0.118121	-0.474052	-5.04833	0.233924	0	0	0	0	0	0	0	0	0
0.55	68.0927	665.064	-30.462	0.226445	0	-0.118026	-0.479002	-4.67843	0.214287	-1.38819	32.2297	-7.69554	0.662957	0	-0.181139	0.00128727	-0.0298867	0.00713609
0.56	73.033	656.706	-29.5834	0.229316	0	-0.11793	-0.477779	-4.29614	0.193534	-3.19454	49.8958	-9.12619	0.691238	0	-0.193929	-0.00506935	0.0791786	-0.0144821
0.57	77.5809	644.427	-28.4089	0.232122	0	-0.117838	-0.470572	-3.90881	0.172316	-5.63282	71.1314	-10.6015	0.708249	0	-0.201211	-0.0121918	0.153959	-0.0229462
0.58	81.5954	628.125	-26.9637	0.23486	0	-0.117754	-0.457583	-3.52249	0.151211	-8.79077	95.8644	-12.0322	0.720124	0	-0.205897	-0.019477	0.212399	-0.0266587
0.59	84.9237	607.76	-25.2797	0.237536	0	-0.11768	-0.439093	-3.14239	0.130707	-12.7342	123.836	-13.3121	0.729315	0	-0.209205	-0.0268832	0.26143	-0.0281031
0.6	87.4095	583.37	-23.3935	0.240157	0	-0.117614	-0.415531	-2.77325	0.111209	-17.4637	154.708	-14.3262	0.736981	0	-0.211738	-0.034339	0.304203	-0.0281698
0.61	88.9035	555.081	-21.3473	0.242735	0	-0.117551	-0.387492	-2.41936	0.0930436	-22.9127	188.106	-14.9621	0.74371	0	-0.213824	-0.0416437	0.341881	-0.0271935
0.62	89.2761	523.124	-19.1894	0.245286	0	-0.117486	-0.355711	-2.08433	0.0764583	-28.9618	223.599	-15.1276	0.749807	0	-0.215645	-0.0484071	0.373725	-0.0252845
0.63	88.4321	487.836	-16.9725	0.247826	0	-0.117408	-0.321015	-1.77088	0.0616114	-35.4414	260.663	-14.7657	0.755423	0	-0.217297	-0.053907	0.396472	-0.0224589
0.64	86.3194	449.665	-14.7511	0.250375	0	-0.117308	-0.284273	-1.48087	0.0485792	-42.1299	298.631	-13.8688	0.760631	0	-0.218831	-0.0570287	0.40424	-0.0187734
0.65	82.9343	409.178	-12.579	0.252953	0	-0.117172	-0.246365	-1.2155	0.0373673	-48.7547	336.661	-12.4918	0.765462	0	-0.220269	-0.0564315	0.389671	-0.0144587
0.66	78.329	367.051	-10.5066	0.255591	0	-0.116981	-0.208194	-0.975599	0.0279259	-55.0389	373.833	-10.7358	0.76995	0	-0.221624	-0.0509575	0.346111	-0.00993967
0.67	72.6157	324.072	-8.57636	0.258326	0	-0.116722	-0.170701	-0.761808	0.0201608	-60.7682	409.355	-8.71136	0.774151	0	-0.222915	-0.0401528	0.270483	-0.00575607
0.68	65.963	281.114	-6.82131	0.261205	0	-0.116372	-0.134776	-0.574375	0.0139374	-65.8033	442.691	-6.53419	0.778125	0	-0.224162	-0.0243363	0.163722	-0.00241656
0.69	58.5941	239.098	-5.26514	0.264296	0	-0.115907	-0.101128	-0.412661	0.00908715	-70.064	473.555	-4.33932	0.78193	0	-0.225381	-0.00428192	0.028941	-0.000265195
0.7	50.7814	198.925	-3.92133	0.267691	0	-0.115286	-0.0702588	-0.275223	0.00542537	-73.5072	501.821	-2.2702	0.785618	0	-0.22658	0.0188436	-0.128642	0.000581967
0.71	42.8289	161.404	-2.79188	0.271524	0	-0.114449	-0.0425246	-0.160257	0.00277204	-76.1117	527.436	-0.447821	0.789227	0	-0.227773	0.0434279	-0.300945	0.000255518
0.72	35.0466	127.189	-1.86878	0.27601	0	-0.113287	-0.0181087	-0.065719	0.000965605	-77.8781	550.36	1.05025	0.79279	0	-0.228971	0.0676044	-0.477757	-0.000911698
0.73	27.719	96.7363	-1.13502	0.281522	0	-0.111605	0.00300695	0.0104939	-0.000123127	-78.8303	570.541	2.19018	0.796333	0	-0.230188	0.0895966	-0.648463	-0.00248931
0.74	21.074	70.2982	-0.567083	0.288789	0	-0.109013	0.0212084	0.0707465	-0.0005707	-79.0097	587.904	2.9826	0.799871	0	-0.231441	0.107884	-0.802759	-0.00407262
0.75	15.2638	47.9373	-0.139371	0.2994	0	-0.104636	0.0374883	0.117735	-0.000342299	-78.4684	602.374	3.47545	0.803412	0	-0.232744	0.121356	-0.931609	-0.00537499
0.76	10.3616	29.5537	0.172522	0.317616	0	-0.0960616	0.0541847	0.154547	0.000902184	-77.2663	613.91	3.7374	0.806959	0	-0.234111	0.129414	-1.02824	-0.00625982
0.77	0	0	0	0	0	0	0	0	0	-75.4692	622.533	3.8413	0.810506	0	-0.235549	0.13197	-1.0886	-0.00671714
0.78	0	0	0	0	0	0	0	0	0	-73.152	628.342	3.8496	0.814047	0	-0.237063	0.129372	-1.11125	-0.00680818
0.79	0	0	0	0	0	0	0	0	0	-70.3988	631.509	3.80527	0.817578	0	-0.238652	0.122269	-1.09681	-0.00660902
0.8	0	0	0	0	0	0	0	0	0	-67.2998	632.262	3.72941	0.821095	0	-0.240308	0.111478	-1.0473	-0.00617751
0.81	0	0	0	0	0	0	0	0	0	-63.9452	630.872	3.6258	0.824595	0	-0.242017	0.0978679	-0.965547	-0.00554928
0.82	0	0	0	0	0	0	0	0	0	-60.4169	627.629	3.4901	0.828073	0	-0.243764	0.0822822	-0.854772	-0.00475319
0.83	0	0	0	0	0	0	0	0	0	-56.7826	622.827	3.31926	0.831517	0	-0.245532	0.0654863	-0.718295	-0.00382804
0.84	0	0	0	0	0	0	0	0	0	-53.0935	616.756	3.11906	0.834913	0	-0.247302	0.0481592	-0.559437	-0.00282918
0.85	0	0	0	0	0	0	0	0	0	-49.3851	609.689	2.90865	0.838241	0	-0.249059	0.0308867	-0.381315	-0.00181915
0.86	0	0	0	0	0	0	0	0	0	-45.6805	601.881	2.72206	0.841484	0	-0.250789	0.0141911	-0.18698	-0.000845635
0.87	0	0	0	0	0	0	0	0	0	-41.9937	593.556	2.60589	0.844622	0	-0.252479	-0.00144269	0.0203915	8.95251e-05
0.88	0	0	0	0	0	0	0	0	0	-38.3321	584.913	2.61064	0.847641	0	-0.254121	-0.0155617	0.237457	0.00105984
0.89	0	0	0	0	0	0	0	0	0	-34.6979	576.127	2.77936	0.85053	0	-0.25571	-0.0277624	0.460969	0.00222381
0.9	0	0	0	0	0	0	0	0	0	-31.0883	567.362	3.13676	0.853286	0	-0.257236	-0.0377062	0.688139	0.00380449
0.91	0	0	0	0	0	0	0	0	0	-27.4971	558.767	3.68178	0.85591	0	-0.258687	-0.0451347	0.91718	0.0060434
0.92	0	0	0	0	0	0	0	0	0	-23.9159	550.483	4.38614	0.858406	0	-0.260052	-0.0498585	1.14762	0.00914398
0.93	0	0	0	0	0	0	0	0	0	-20.3338	542.643	5.19873	0.860789	0	-0.261313	-0.0517215	1.38028	0.0132236
0.94	0	0	0	0	0	0	0	0	0	-16.7365	535.38	6.05424	0.863069	0	-0.262454	-0.0505478	1.61696	0.0182851
0.95	0	0	0	0	0	0	0	0	0	-13.1055	528.828	6.88377	0.865264	0	-0.263458	-0.0460926	1.85992	0.0242106
0.96	0	0	0	0	0	0	0	0	0	-9.41599	523.133	7.62539	0.86739	0	-0.264313	-0.038001	2.11126	0.0307745
0.97	0	0	0	0	0	0	0	0	0	-5.63604	518.458	8.23295	0.869458	0	-0.26501	-0.025787	2.37214	0.0376688
0.98	0	0	0	0	0	0	0	0	0	-1.72573	514.989	8.68104	0.871481	0	-0.265544	-0.00885383	2.64214	0.0445379
0.99	0	0	0	0	0	0	0	0	0	2.36086	512.931	8.96611	0.873464	0	-0.26592	0.0134345	2.91884	0.0510217
1	0	0	0	0	0	0	0	0	0	6.6734	512.492	9.10342	0.87541	0	-0.266142	0.0416386	3.19768	0.0568006
1.01	0	0	0	0	0	0	0	0	0	11.2626	513.869	9.12167	0.87732	0	-0.266227	0.0761032	3.47229	0.0616365
1.02	0	0	0	0	0	0	0	0	0	16.1779	517.219	9.05656	0.879191	0	-0.266195	0.116819	3.7348	0.0653966
1.03	0	0	0	0	0	0	0	0	0	21.4641	522.64	8.94483	0.88102	0	-0.266068	0.163306	3.97642	0.0680552
1.04	0	0	0	0	0	0	0	0	0	27.1572	530.138	8.81856	0.882803	0	-0.265873	0.214546	4.18817	0.0696679
1.05	0	0	0	0	0	0	0	0	0	33.2798	539.604	8.70125	0.884539	0	-0.265632	0.268995	4.36152	0.0703306
1.06	0	0	0	0	0	0	0	0	0	39.8376	550.796	8.60715	0.886229	0	-0.265368	0.324662	4.48879	0.0701452
1.07	0	0	0	0	0	0	0	0	0	46.8169	563.335	8.54096	0.88788	0	-0.265102	0.379256	4.56349	0.069189
